<mxfile host="app.diagrams.net" agent="Mozilla/5.0 (Windows NT 10.0; Win64; x64) AppleWebKit/537.36 (KHTML, like Gecko) Chrome/131.0.0.0 Safari/537.36" version="24.9.1">
  <diagram name="第 1 页" id="djIlXgQGoJNYmzbcMCp1">
    <mxGraphModel dx="2501" dy="746" grid="1" gridSize="10" guides="1" tooltips="1" connect="1" arrows="1" fold="1" page="1" pageScale="1" pageWidth="827" pageHeight="1169" math="0" shadow="0">
      <root>
        <mxCell id="0" />
        <mxCell id="1" parent="0" />
        <mxCell id="JS5keNYWA7rWo26T6prg-126" style="edgeStyle=orthogonalEdgeStyle;rounded=0;orthogonalLoop=1;jettySize=auto;html=1;exitX=0.5;exitY=1;exitDx=0;exitDy=0;" parent="1" source="JS5keNYWA7rWo26T6prg-25" target="JS5keNYWA7rWo26T6prg-120" edge="1">
          <mxGeometry relative="1" as="geometry" />
        </mxCell>
        <mxCell id="JS5keNYWA7rWo26T6prg-25" value="" style="rounded=1;absoluteArcSize=1;html=1;arcSize=10;fillColor=#ffe6cc;strokeColor=#d79b00;" parent="1" vertex="1">
          <mxGeometry x="220" y="80" width="220" height="100" as="geometry" />
        </mxCell>
        <mxCell id="JS5keNYWA7rWo26T6prg-26" value="数据域" style="html=1;shape=mxgraph.er.anchor;whiteSpace=wrap;" parent="JS5keNYWA7rWo26T6prg-25" vertex="1">
          <mxGeometry width="80" height="100" as="geometry" />
        </mxCell>
        <mxCell id="JS5keNYWA7rWo26T6prg-27" value="链接域" style="rounded=1;absoluteArcSize=1;html=1;arcSize=10;whiteSpace=wrap;points=[];strokeColor=inherit;fillColor=inherit;" parent="JS5keNYWA7rWo26T6prg-25" vertex="1">
          <mxGeometry x="136.1904761904762" y="5" width="20.952380952380953" height="90" as="geometry" />
        </mxCell>
        <mxCell id="JS5keNYWA7rWo26T6prg-29" value="商品域" style="rounded=1;absoluteArcSize=1;html=1;arcSize=10;whiteSpace=wrap;points=[];strokeColor=inherit;fillColor=inherit;" parent="JS5keNYWA7rWo26T6prg-25" vertex="1">
          <mxGeometry x="110" y="5" width="20.952380952380953" height="90" as="geometry" />
        </mxCell>
        <mxCell id="JS5keNYWA7rWo26T6prg-30" value="订单域" style="rounded=1;absoluteArcSize=1;html=1;arcSize=10;whiteSpace=wrap;points=[];strokeColor=inherit;fillColor=inherit;" parent="JS5keNYWA7rWo26T6prg-25" vertex="1">
          <mxGeometry x="79.99952380952381" y="5" width="20.952380952380953" height="90" as="geometry" />
        </mxCell>
        <mxCell id="JS5keNYWA7rWo26T6prg-36" value="......" style="rounded=1;absoluteArcSize=1;html=1;arcSize=10;whiteSpace=wrap;points=[];strokeColor=inherit;fillColor=inherit;" parent="JS5keNYWA7rWo26T6prg-25" vertex="1">
          <mxGeometry x="167.62" y="5" width="42.38" height="90" as="geometry" />
        </mxCell>
        <mxCell id="JS5keNYWA7rWo26T6prg-101" style="edgeStyle=orthogonalEdgeStyle;rounded=0;orthogonalLoop=1;jettySize=auto;html=1;exitX=0.5;exitY=1;exitDx=0;exitDy=0;entryX=0.5;entryY=0;entryDx=0;entryDy=0;" parent="1" source="JS5keNYWA7rWo26T6prg-37" target="JS5keNYWA7rWo26T6prg-50" edge="1">
          <mxGeometry relative="1" as="geometry" />
        </mxCell>
        <mxCell id="JS5keNYWA7rWo26T6prg-139" style="edgeStyle=orthogonalEdgeStyle;rounded=0;orthogonalLoop=1;jettySize=auto;html=1;exitX=0.5;exitY=1;exitDx=0;exitDy=0;entryX=0.5;entryY=0;entryDx=0;entryDy=0;" parent="1" source="JS5keNYWA7rWo26T6prg-37" target="JS5keNYWA7rWo26T6prg-108" edge="1">
          <mxGeometry relative="1" as="geometry" />
        </mxCell>
        <mxCell id="JS5keNYWA7rWo26T6prg-142" style="edgeStyle=orthogonalEdgeStyle;rounded=0;orthogonalLoop=1;jettySize=auto;html=1;exitX=0;exitY=0.5;exitDx=0;exitDy=0;" parent="1" source="JS5keNYWA7rWo26T6prg-37" target="JS5keNYWA7rWo26T6prg-140" edge="1">
          <mxGeometry relative="1" as="geometry" />
        </mxCell>
        <mxCell id="JS5keNYWA7rWo26T6prg-158" style="edgeStyle=orthogonalEdgeStyle;rounded=0;orthogonalLoop=1;jettySize=auto;html=1;exitX=1;exitY=0.5;exitDx=0;exitDy=0;" parent="1" source="JS5keNYWA7rWo26T6prg-37" target="JS5keNYWA7rWo26T6prg-152" edge="1">
          <mxGeometry relative="1" as="geometry">
            <Array as="points">
              <mxPoint x="440" y="370" />
              <mxPoint x="815" y="370" />
            </Array>
          </mxGeometry>
        </mxCell>
        <mxCell id="JS5keNYWA7rWo26T6prg-37" value="" style="rounded=1;absoluteArcSize=1;html=1;arcSize=10;fillColor=#ffe6cc;strokeColor=#d79b00;" parent="1" vertex="1">
          <mxGeometry x="220" y="250" width="220" height="100" as="geometry" />
        </mxCell>
        <mxCell id="JS5keNYWA7rWo26T6prg-38" value="订单域" style="html=1;shape=mxgraph.er.anchor;whiteSpace=wrap;" parent="JS5keNYWA7rWo26T6prg-37" vertex="1">
          <mxGeometry width="80" height="100" as="geometry" />
        </mxCell>
        <mxCell id="JS5keNYWA7rWo26T6prg-39" value="订单表" style="rounded=1;absoluteArcSize=1;html=1;arcSize=10;whiteSpace=wrap;points=[];strokeColor=inherit;fillColor=inherit;" parent="JS5keNYWA7rWo26T6prg-37" vertex="1">
          <mxGeometry x="80" y="5" width="20" height="90" as="geometry" />
        </mxCell>
        <mxCell id="JS5keNYWA7rWo26T6prg-43" value="订单详情表" style="rounded=1;absoluteArcSize=1;html=1;arcSize=10;whiteSpace=wrap;points=[];strokeColor=inherit;fillColor=inherit;" parent="JS5keNYWA7rWo26T6prg-37" vertex="1">
          <mxGeometry x="110" y="5" width="20" height="90" as="geometry" />
        </mxCell>
        <mxCell id="JS5keNYWA7rWo26T6prg-44" value="订单扩展表" style="rounded=1;absoluteArcSize=1;html=1;arcSize=10;whiteSpace=wrap;points=[];strokeColor=inherit;fillColor=inherit;" parent="JS5keNYWA7rWo26T6prg-37" vertex="1">
          <mxGeometry x="140" y="5" width="20" height="90" as="geometry" />
        </mxCell>
        <mxCell id="JS5keNYWA7rWo26T6prg-45" value="......" style="rounded=1;absoluteArcSize=1;html=1;arcSize=10;whiteSpace=wrap;points=[];strokeColor=inherit;fillColor=inherit;" parent="JS5keNYWA7rWo26T6prg-37" vertex="1">
          <mxGeometry x="170" y="5" width="40" height="90" as="geometry" />
        </mxCell>
        <mxCell id="JS5keNYWA7rWo26T6prg-118" style="edgeStyle=orthogonalEdgeStyle;rounded=0;orthogonalLoop=1;jettySize=auto;html=1;exitX=0.5;exitY=1;exitDx=0;exitDy=0;entryX=0.5;entryY=0;entryDx=0;entryDy=0;" parent="1" source="JS5keNYWA7rWo26T6prg-47" target="JS5keNYWA7rWo26T6prg-59" edge="1">
          <mxGeometry relative="1" as="geometry">
            <Array as="points">
              <mxPoint x="545" y="710" />
              <mxPoint x="252" y="710" />
            </Array>
          </mxGeometry>
        </mxCell>
        <mxCell id="JS5keNYWA7rWo26T6prg-103" style="edgeStyle=orthogonalEdgeStyle;rounded=0;orthogonalLoop=1;jettySize=auto;html=1;exitX=0.5;exitY=1;exitDx=0;exitDy=0;entryX=0.5;entryY=0;entryDx=0;entryDy=0;" parent="1" source="JS5keNYWA7rWo26T6prg-50" target="JS5keNYWA7rWo26T6prg-56" edge="1">
          <mxGeometry relative="1" as="geometry" />
        </mxCell>
        <mxCell id="JS5keNYWA7rWo26T6prg-116" style="edgeStyle=orthogonalEdgeStyle;rounded=0;orthogonalLoop=1;jettySize=auto;html=1;exitX=0.5;exitY=1;exitDx=0;exitDy=0;entryX=0.5;entryY=0;entryDx=0;entryDy=0;" parent="1" source="JS5keNYWA7rWo26T6prg-53" target="JS5keNYWA7rWo26T6prg-59" edge="1">
          <mxGeometry relative="1" as="geometry" />
        </mxCell>
        <mxCell id="JS5keNYWA7rWo26T6prg-53" value="" style="rounded=1;absoluteArcSize=1;html=1;arcSize=10;fillColor=#f8cecc;strokeColor=#b85450;" parent="1" vertex="1">
          <mxGeometry x="-130" y="570" width="200" height="145" as="geometry" />
        </mxCell>
        <mxCell id="JS5keNYWA7rWo26T6prg-54" value="时间周期" style="html=1;shape=mxgraph.er.anchor;whiteSpace=wrap;" parent="JS5keNYWA7rWo26T6prg-53" vertex="1">
          <mxGeometry width="50.00000000000001" height="144.99999999999997" as="geometry" />
        </mxCell>
        <mxCell id="JS5keNYWA7rWo26T6prg-65" value="......" style="rounded=1;absoluteArcSize=1;html=1;arcSize=10;whiteSpace=wrap;points=[];strokeColor=inherit;fillColor=inherit;" parent="JS5keNYWA7rWo26T6prg-53" vertex="1">
          <mxGeometry x="143.75000000000003" y="7.250000000000001" width="47.91666666666667" height="130.49999999999997" as="geometry" />
        </mxCell>
        <mxCell id="JS5keNYWA7rWo26T6prg-64" value="付款时间最近一年" style="rounded=1;absoluteArcSize=1;html=1;arcSize=10;whiteSpace=wrap;points=[];strokeColor=inherit;fillColor=inherit;" parent="JS5keNYWA7rWo26T6prg-53" vertex="1">
          <mxGeometry x="120.00095238095241" y="7.250000000000001" width="19.166666666666668" height="130.49999999999997" as="geometry" />
        </mxCell>
        <mxCell id="JS5keNYWA7rWo26T6prg-63" value="下单时间最近三天" style="rounded=1;absoluteArcSize=1;html=1;arcSize=10;whiteSpace=wrap;points=[];strokeColor=inherit;fillColor=inherit;" parent="JS5keNYWA7rWo26T6prg-53" vertex="1">
          <mxGeometry x="90.42142857142859" y="7.250000000000001" width="19.166666666666668" height="130.49999999999997" as="geometry" />
        </mxCell>
        <mxCell id="JS5keNYWA7rWo26T6prg-55" value="创建时间最近一个月" style="rounded=1;absoluteArcSize=1;html=1;arcSize=10;whiteSpace=wrap;points=[];strokeColor=inherit;fillColor=inherit;" parent="JS5keNYWA7rWo26T6prg-53" vertex="1">
          <mxGeometry x="60" y="7.250000000000001" width="19.166666666666668" height="130.49999999999997" as="geometry" />
        </mxCell>
        <mxCell id="JS5keNYWA7rWo26T6prg-106" style="edgeStyle=orthogonalEdgeStyle;rounded=0;orthogonalLoop=1;jettySize=auto;html=1;exitX=0.5;exitY=1;exitDx=0;exitDy=0;entryX=0.5;entryY=0;entryDx=0;entryDy=0;" parent="1" source="JS5keNYWA7rWo26T6prg-56" target="JS5keNYWA7rWo26T6prg-59" edge="1">
          <mxGeometry relative="1" as="geometry" />
        </mxCell>
        <mxCell id="JS5keNYWA7rWo26T6prg-56" value="" style="rounded=1;absoluteArcSize=1;html=1;arcSize=10;fillColor=#f8cecc;strokeColor=#b85450;" parent="1" vertex="1">
          <mxGeometry x="141.5" y="570" width="220" height="100" as="geometry" />
        </mxCell>
        <mxCell id="JS5keNYWA7rWo26T6prg-57" value="原子指标" style="html=1;shape=mxgraph.er.anchor;whiteSpace=wrap;" parent="JS5keNYWA7rWo26T6prg-56" vertex="1">
          <mxGeometry width="50" height="100" as="geometry" />
        </mxCell>
        <mxCell id="JS5keNYWA7rWo26T6prg-58" value="......" style="rounded=1;absoluteArcSize=1;html=1;arcSize=10;whiteSpace=wrap;points=[];strokeColor=inherit;fillColor=inherit;" parent="JS5keNYWA7rWo26T6prg-56" vertex="1">
          <mxGeometry x="170" y="5" width="39" height="90" as="geometry" />
        </mxCell>
        <mxCell id="JS5keNYWA7rWo26T6prg-70" value="加购数量" style="rounded=1;absoluteArcSize=1;html=1;arcSize=10;whiteSpace=wrap;points=[];strokeColor=inherit;fillColor=inherit;" parent="JS5keNYWA7rWo26T6prg-56" vertex="1">
          <mxGeometry x="60" y="5" width="20" height="90" as="geometry" />
        </mxCell>
        <mxCell id="JS5keNYWA7rWo26T6prg-71" value="加购金额" style="rounded=1;absoluteArcSize=1;html=1;arcSize=10;whiteSpace=wrap;points=[];strokeColor=inherit;fillColor=inherit;" parent="JS5keNYWA7rWo26T6prg-56" vertex="1">
          <mxGeometry x="90" y="5" width="20" height="90" as="geometry" />
        </mxCell>
        <mxCell id="JS5keNYWA7rWo26T6prg-72" value="下单数量" style="rounded=1;absoluteArcSize=1;html=1;arcSize=10;whiteSpace=wrap;points=[];strokeColor=inherit;fillColor=inherit;" parent="JS5keNYWA7rWo26T6prg-56" vertex="1">
          <mxGeometry x="113.5" y="5" width="20" height="90" as="geometry" />
        </mxCell>
        <mxCell id="JS5keNYWA7rWo26T6prg-73" value="付款金额" style="rounded=1;absoluteArcSize=1;html=1;arcSize=10;whiteSpace=wrap;points=[];strokeColor=inherit;fillColor=inherit;" parent="JS5keNYWA7rWo26T6prg-56" vertex="1">
          <mxGeometry x="140" y="5" width="20" height="90" as="geometry" />
        </mxCell>
        <mxCell id="JS5keNYWA7rWo26T6prg-151" style="edgeStyle=orthogonalEdgeStyle;rounded=0;orthogonalLoop=1;jettySize=auto;html=1;exitX=0.5;exitY=1;exitDx=0;exitDy=0;entryX=0.5;entryY=0;entryDx=0;entryDy=0;" parent="1" source="JS5keNYWA7rWo26T6prg-59" target="JS5keNYWA7rWo26T6prg-145" edge="1">
          <mxGeometry relative="1" as="geometry" />
        </mxCell>
        <mxCell id="JS5keNYWA7rWo26T6prg-59" value="" style="rounded=1;absoluteArcSize=1;html=1;arcSize=10;fillColor=#f8cecc;strokeColor=#b85450;" parent="1" vertex="1">
          <mxGeometry x="56.5" y="800" width="390" height="150" as="geometry" />
        </mxCell>
        <mxCell id="JS5keNYWA7rWo26T6prg-60" value="派生指标" style="html=1;shape=mxgraph.er.anchor;whiteSpace=wrap;" parent="JS5keNYWA7rWo26T6prg-59" vertex="1">
          <mxGeometry width="60" height="136.36" as="geometry" />
        </mxCell>
        <mxCell id="JS5keNYWA7rWo26T6prg-61" value="......" style="rounded=1;absoluteArcSize=1;html=1;arcSize=10;whiteSpace=wrap;points=[];strokeColor=inherit;fillColor=inherit;" parent="JS5keNYWA7rWo26T6prg-59" vertex="1">
          <mxGeometry x="341" y="6.82" width="40.5" height="133.18" as="geometry" />
        </mxCell>
        <mxCell id="JS5keNYWA7rWo26T6prg-80" value="" style="rounded=1;absoluteArcSize=1;html=1;arcSize=10;fillColor=#f8cecc;strokeColor=#b85450;" parent="JS5keNYWA7rWo26T6prg-59" vertex="1">
          <mxGeometry x="60" y="6.82" width="130" height="136.36" as="geometry" />
        </mxCell>
        <mxCell id="JS5keNYWA7rWo26T6prg-81" value="" style="html=1;shape=mxgraph.er.anchor;whiteSpace=wrap;" parent="JS5keNYWA7rWo26T6prg-80" vertex="1">
          <mxGeometry width="65" height="136.36" as="geometry" />
        </mxCell>
        <mxCell id="JS5keNYWA7rWo26T6prg-85" value="创建时间最近3天" style="rounded=1;absoluteArcSize=1;html=1;arcSize=9;whiteSpace=wrap;points=[];strokeColor=inherit;fillColor=inherit;" parent="JS5keNYWA7rWo26T6prg-80" vertex="1">
          <mxGeometry x="10" y="6.3599999999999" width="22.2" height="123.64" as="geometry" />
        </mxCell>
        <mxCell id="JS5keNYWA7rWo26T6prg-82" value="亚马逊平台" style="rounded=1;absoluteArcSize=1;html=1;arcSize=10;whiteSpace=wrap;points=[];strokeColor=inherit;fillColor=inherit;" parent="JS5keNYWA7rWo26T6prg-80" vertex="1">
          <mxGeometry x="41.299999999999955" y="6.3599999999999" width="22.2" height="123.64" as="geometry" />
        </mxCell>
        <mxCell id="JS5keNYWA7rWo26T6prg-86" value="不含税" style="rounded=1;absoluteArcSize=1;html=1;arcSize=10;whiteSpace=wrap;points=[];strokeColor=inherit;fillColor=inherit;" parent="JS5keNYWA7rWo26T6prg-80" vertex="1">
          <mxGeometry x="70" y="6.3599999999999" width="22.2" height="123.64" as="geometry" />
        </mxCell>
        <mxCell id="JS5keNYWA7rWo26T6prg-87" value="订单创建数量" style="rounded=1;absoluteArcSize=1;html=1;arcSize=10;whiteSpace=wrap;points=[];strokeColor=inherit;fillColor=inherit;" parent="JS5keNYWA7rWo26T6prg-80" vertex="1">
          <mxGeometry x="100" y="6.3599999999999" width="22.2" height="123.64" as="geometry" />
        </mxCell>
        <mxCell id="JS5keNYWA7rWo26T6prg-89" value="" style="rounded=1;absoluteArcSize=1;html=1;arcSize=10;fillColor=#f8cecc;strokeColor=#b85450;" parent="JS5keNYWA7rWo26T6prg-59" vertex="1">
          <mxGeometry x="200" y="6.82000000000005" width="130" height="136.36" as="geometry" />
        </mxCell>
        <mxCell id="JS5keNYWA7rWo26T6prg-90" value="" style="html=1;shape=mxgraph.er.anchor;whiteSpace=wrap;" parent="JS5keNYWA7rWo26T6prg-89" vertex="1">
          <mxGeometry width="65" height="136.36" as="geometry" />
        </mxCell>
        <mxCell id="JS5keNYWA7rWo26T6prg-91" value="付款时间最近7天" style="rounded=1;absoluteArcSize=1;html=1;arcSize=9;whiteSpace=wrap;points=[];strokeColor=inherit;fillColor=inherit;" parent="JS5keNYWA7rWo26T6prg-89" vertex="1">
          <mxGeometry x="10" y="6.3599999999999" width="22.2" height="123.64" as="geometry" />
        </mxCell>
        <mxCell id="JS5keNYWA7rWo26T6prg-92" value="虚拟发货单" style="rounded=1;absoluteArcSize=1;html=1;arcSize=10;whiteSpace=wrap;points=[];strokeColor=inherit;fillColor=inherit;" parent="JS5keNYWA7rWo26T6prg-89" vertex="1">
          <mxGeometry x="41.299999999999955" y="6.3599999999999" width="22.2" height="123.64" as="geometry" />
        </mxCell>
        <mxCell id="JS5keNYWA7rWo26T6prg-93" value="已出库" style="rounded=1;absoluteArcSize=1;html=1;arcSize=10;whiteSpace=wrap;points=[];strokeColor=inherit;fillColor=inherit;" parent="JS5keNYWA7rWo26T6prg-89" vertex="1">
          <mxGeometry x="70" y="6.3599999999999" width="22.2" height="123.64" as="geometry" />
        </mxCell>
        <mxCell id="JS5keNYWA7rWo26T6prg-94" value="订单付款金额" style="rounded=1;absoluteArcSize=1;html=1;arcSize=10;whiteSpace=wrap;points=[];strokeColor=inherit;fillColor=inherit;" parent="JS5keNYWA7rWo26T6prg-89" vertex="1">
          <mxGeometry x="100" y="6.3599999999999" width="22.2" height="123.64" as="geometry" />
        </mxCell>
        <mxCell id="JS5keNYWA7rWo26T6prg-99" style="edgeStyle=orthogonalEdgeStyle;rounded=0;orthogonalLoop=1;jettySize=auto;html=1;exitX=0.5;exitY=1;exitDx=0;exitDy=0;entryX=1;entryY=0;entryDx=0;entryDy=0;entryPerimeter=0;" parent="1" source="JS5keNYWA7rWo26T6prg-25" target="JS5keNYWA7rWo26T6prg-38" edge="1">
          <mxGeometry relative="1" as="geometry" />
        </mxCell>
        <mxCell id="JS5keNYWA7rWo26T6prg-100" style="edgeStyle=orthogonalEdgeStyle;rounded=0;orthogonalLoop=1;jettySize=auto;html=1;exitX=0.5;exitY=1;exitDx=0;exitDy=0;entryX=0.87;entryY=0.02;entryDx=0;entryDy=0;entryPerimeter=0;" parent="1" source="JS5keNYWA7rWo26T6prg-37" target="JS5keNYWA7rWo26T6prg-47" edge="1">
          <mxGeometry relative="1" as="geometry" />
        </mxCell>
        <mxCell id="JS5keNYWA7rWo26T6prg-115" style="edgeStyle=orthogonalEdgeStyle;rounded=0;orthogonalLoop=1;jettySize=auto;html=1;exitX=0.5;exitY=1;exitDx=0;exitDy=0;entryX=0.5;entryY=0;entryDx=0;entryDy=0;" parent="1" source="JS5keNYWA7rWo26T6prg-108" target="JS5keNYWA7rWo26T6prg-53" edge="1">
          <mxGeometry relative="1" as="geometry" />
        </mxCell>
        <mxCell id="JS5keNYWA7rWo26T6prg-144" style="edgeStyle=orthogonalEdgeStyle;rounded=0;orthogonalLoop=1;jettySize=auto;html=1;exitX=0;exitY=0.5;exitDx=0;exitDy=0;" parent="1" source="JS5keNYWA7rWo26T6prg-120" target="JS5keNYWA7rWo26T6prg-143" edge="1">
          <mxGeometry relative="1" as="geometry" />
        </mxCell>
        <mxCell id="JS5keNYWA7rWo26T6prg-120" value="" style="rounded=1;absoluteArcSize=1;html=1;arcSize=10;fillColor=#ffe6cc;strokeColor=#d79b00;" parent="1" vertex="1">
          <mxGeometry x="770" y="250" width="220" height="100" as="geometry" />
        </mxCell>
        <mxCell id="JS5keNYWA7rWo26T6prg-121" value="公共域" style="html=1;shape=mxgraph.er.anchor;whiteSpace=wrap;" parent="JS5keNYWA7rWo26T6prg-120" vertex="1">
          <mxGeometry width="80" height="100" as="geometry" />
        </mxCell>
        <mxCell id="JS5keNYWA7rWo26T6prg-122" value="商品表" style="rounded=1;absoluteArcSize=1;html=1;arcSize=10;whiteSpace=wrap;points=[];strokeColor=inherit;fillColor=inherit;" parent="JS5keNYWA7rWo26T6prg-120" vertex="1">
          <mxGeometry x="80" y="5" width="20" height="90" as="geometry" />
        </mxCell>
        <mxCell id="JS5keNYWA7rWo26T6prg-123" value="订单详情表" style="rounded=1;absoluteArcSize=1;html=1;arcSize=10;whiteSpace=wrap;points=[];strokeColor=inherit;fillColor=inherit;" parent="JS5keNYWA7rWo26T6prg-120" vertex="1">
          <mxGeometry x="110" y="5" width="20" height="90" as="geometry" />
        </mxCell>
        <mxCell id="JS5keNYWA7rWo26T6prg-124" value="订单扩展表" style="rounded=1;absoluteArcSize=1;html=1;arcSize=10;whiteSpace=wrap;points=[];strokeColor=inherit;fillColor=inherit;" parent="JS5keNYWA7rWo26T6prg-120" vertex="1">
          <mxGeometry x="140" y="5" width="20" height="90" as="geometry" />
        </mxCell>
        <mxCell id="JS5keNYWA7rWo26T6prg-125" value="......" style="rounded=1;absoluteArcSize=1;html=1;arcSize=10;whiteSpace=wrap;points=[];strokeColor=inherit;fillColor=inherit;" parent="JS5keNYWA7rWo26T6prg-120" vertex="1">
          <mxGeometry x="170" y="5" width="40" height="90" as="geometry" />
        </mxCell>
        <mxCell id="JS5keNYWA7rWo26T6prg-129" value="" style="endArrow=classic;startArrow=classic;html=1;rounded=0;exitX=1;exitY=0.5;exitDx=0;exitDy=0;entryX=0.5;entryY=1;entryDx=0;entryDy=0;" parent="1" source="JS5keNYWA7rWo26T6prg-47" target="JS5keNYWA7rWo26T6prg-120" edge="1">
          <mxGeometry width="50" height="50" relative="1" as="geometry">
            <mxPoint x="310" y="270" as="sourcePoint" />
            <mxPoint x="900" y="390" as="targetPoint" />
            <Array as="points">
              <mxPoint x="880" y="460" />
            </Array>
          </mxGeometry>
        </mxCell>
        <mxCell id="JS5keNYWA7rWo26T6prg-130" value="数仓规划" style="rounded=1;whiteSpace=wrap;html=1;fillColor=#ffe6cc;strokeColor=#d79b00;" parent="1" vertex="1">
          <mxGeometry x="-360" y="20" width="120" height="30" as="geometry" />
        </mxCell>
        <mxCell id="JS5keNYWA7rWo26T6prg-131" value="数仓建模" style="rounded=1;whiteSpace=wrap;html=1;fillColor=#fff2cc;strokeColor=#d6b656;" parent="1" vertex="1">
          <mxGeometry x="-360" y="70" width="120" height="30" as="geometry" />
        </mxCell>
        <mxCell id="JS5keNYWA7rWo26T6prg-132" value="数仓指标" style="rounded=1;whiteSpace=wrap;html=1;fillColor=#f8cecc;strokeColor=#b85450;" parent="1" vertex="1">
          <mxGeometry x="-360" y="115" width="120" height="30" as="geometry" />
        </mxCell>
        <mxCell id="JS5keNYWA7rWo26T6prg-133" value="" style="endArrow=none;dashed=1;html=1;rounded=0;" parent="1" edge="1">
          <mxGeometry width="50" height="50" relative="1" as="geometry">
            <mxPoint x="-360" y="200" as="sourcePoint" />
            <mxPoint x="1240" y="200" as="targetPoint" />
          </mxGeometry>
        </mxCell>
        <mxCell id="JS5keNYWA7rWo26T6prg-134" value="" style="endArrow=none;dashed=1;html=1;rounded=0;" parent="1" edge="1">
          <mxGeometry width="50" height="50" relative="1" as="geometry">
            <mxPoint x="-360" y="1000" as="sourcePoint" />
            <mxPoint x="1240" y="1000" as="targetPoint" />
          </mxGeometry>
        </mxCell>
        <mxCell id="JS5keNYWA7rWo26T6prg-136" value="" style="rounded=1;absoluteArcSize=1;html=1;arcSize=10;fillStyle=dots;fillColor=#d5e8d4;strokeColor=#82b366;" parent="1" vertex="1">
          <mxGeometry x="-210" y="390" width="850" height="140" as="geometry" />
        </mxCell>
        <mxCell id="JS5keNYWA7rWo26T6prg-137" value="总线矩阵" style="html=1;shape=mxgraph.er.anchor;whiteSpace=wrap;" parent="JS5keNYWA7rWo26T6prg-136" vertex="1">
          <mxGeometry width="60" height="140" as="geometry" />
        </mxCell>
        <mxCell id="JS5keNYWA7rWo26T6prg-108" value="" style="rounded=1;absoluteArcSize=1;html=1;arcSize=10;fillColor=#fff2cc;strokeColor=#d6b656;" parent="JS5keNYWA7rWo26T6prg-136" vertex="1">
          <mxGeometry x="80" y="20" width="200" height="100" as="geometry" />
        </mxCell>
        <mxCell id="JS5keNYWA7rWo26T6prg-109" value="业务时间" style="html=1;shape=mxgraph.er.anchor;whiteSpace=wrap;" parent="JS5keNYWA7rWo26T6prg-108" vertex="1">
          <mxGeometry width="50.00000000000001" height="100" as="geometry" />
        </mxCell>
        <mxCell id="JS5keNYWA7rWo26T6prg-110" value="......" style="rounded=1;absoluteArcSize=1;html=1;arcSize=10;whiteSpace=wrap;points=[];strokeColor=inherit;fillColor=inherit;" parent="JS5keNYWA7rWo26T6prg-108" vertex="1">
          <mxGeometry x="143.75000000000003" y="5" width="47.91666666666667" height="90" as="geometry" />
        </mxCell>
        <mxCell id="JS5keNYWA7rWo26T6prg-111" value="付款时间" style="rounded=1;absoluteArcSize=1;html=1;arcSize=10;whiteSpace=wrap;points=[];strokeColor=inherit;fillColor=inherit;" parent="JS5keNYWA7rWo26T6prg-108" vertex="1">
          <mxGeometry x="120.00095238095241" y="5" width="19.166666666666668" height="90" as="geometry" />
        </mxCell>
        <mxCell id="JS5keNYWA7rWo26T6prg-112" value="下单时间" style="rounded=1;absoluteArcSize=1;html=1;arcSize=10;whiteSpace=wrap;points=[];strokeColor=inherit;fillColor=inherit;" parent="JS5keNYWA7rWo26T6prg-108" vertex="1">
          <mxGeometry x="90.42142857142859" y="5" width="19.166666666666668" height="90" as="geometry" />
        </mxCell>
        <mxCell id="JS5keNYWA7rWo26T6prg-113" value="创建时间" style="rounded=1;absoluteArcSize=1;html=1;arcSize=10;whiteSpace=wrap;points=[];strokeColor=inherit;fillColor=inherit;" parent="JS5keNYWA7rWo26T6prg-108" vertex="1">
          <mxGeometry x="60" y="5" width="19.166666666666668" height="90" as="geometry" />
        </mxCell>
        <mxCell id="JS5keNYWA7rWo26T6prg-50" value="" style="rounded=1;absoluteArcSize=1;html=1;arcSize=10;fillColor=#fff2cc;strokeColor=#d6b656;" parent="JS5keNYWA7rWo26T6prg-136" vertex="1">
          <mxGeometry x="350" y="20" width="223" height="100" as="geometry" />
        </mxCell>
        <mxCell id="JS5keNYWA7rWo26T6prg-51" value="业务过程" style="html=1;shape=mxgraph.er.anchor;whiteSpace=wrap;" parent="JS5keNYWA7rWo26T6prg-50" vertex="1">
          <mxGeometry width="60" height="100" as="geometry" />
        </mxCell>
        <mxCell id="JS5keNYWA7rWo26T6prg-52" value="......" style="rounded=1;absoluteArcSize=1;html=1;arcSize=10;whiteSpace=wrap;points=[];strokeColor=inherit;fillColor=inherit;" parent="JS5keNYWA7rWo26T6prg-50" vertex="1">
          <mxGeometry x="170" y="5" width="41.85" height="90" as="geometry" />
        </mxCell>
        <mxCell id="JS5keNYWA7rWo26T6prg-66" value="加购" style="rounded=1;absoluteArcSize=1;html=1;arcSize=10;whiteSpace=wrap;points=[];strokeColor=inherit;fillColor=inherit;" parent="JS5keNYWA7rWo26T6prg-50" vertex="1">
          <mxGeometry x="60" y="5" width="20" height="90" as="geometry" />
        </mxCell>
        <mxCell id="JS5keNYWA7rWo26T6prg-67" value="下单" style="rounded=1;absoluteArcSize=1;html=1;arcSize=10;whiteSpace=wrap;points=[];strokeColor=inherit;fillColor=inherit;" parent="JS5keNYWA7rWo26T6prg-50" vertex="1">
          <mxGeometry x="83" y="5" width="20" height="90" as="geometry" />
        </mxCell>
        <mxCell id="JS5keNYWA7rWo26T6prg-68" value="创建" style="rounded=1;absoluteArcSize=1;html=1;arcSize=10;whiteSpace=wrap;points=[];strokeColor=inherit;fillColor=inherit;" parent="JS5keNYWA7rWo26T6prg-50" vertex="1">
          <mxGeometry x="103" y="5" width="20" height="90" as="geometry" />
        </mxCell>
        <mxCell id="JS5keNYWA7rWo26T6prg-69" value="付款" style="rounded=1;absoluteArcSize=1;html=1;arcSize=10;whiteSpace=wrap;points=[];strokeColor=inherit;fillColor=inherit;" parent="JS5keNYWA7rWo26T6prg-50" vertex="1">
          <mxGeometry x="127" y="5" width="20" height="90" as="geometry" />
        </mxCell>
        <mxCell id="JS5keNYWA7rWo26T6prg-47" value="" style="rounded=1;absoluteArcSize=1;html=1;arcSize=10;fillColor=#fff2cc;strokeColor=#d6b656;" parent="JS5keNYWA7rWo26T6prg-136" vertex="1">
          <mxGeometry x="600" y="20" width="230" height="100" as="geometry" />
        </mxCell>
        <mxCell id="JS5keNYWA7rWo26T6prg-48" value="修饰词" style="html=1;shape=mxgraph.er.anchor;whiteSpace=wrap;" parent="JS5keNYWA7rWo26T6prg-47" vertex="1">
          <mxGeometry width="50" height="100" as="geometry" />
        </mxCell>
        <mxCell id="JS5keNYWA7rWo26T6prg-49" value="......" style="rounded=1;absoluteArcSize=1;html=1;arcSize=10;whiteSpace=wrap;points=[];strokeColor=inherit;fillColor=inherit;" parent="JS5keNYWA7rWo26T6prg-47" vertex="1">
          <mxGeometry x="180" y="5" width="43.5" height="90" as="geometry" />
        </mxCell>
        <mxCell id="JS5keNYWA7rWo26T6prg-74" value="订单类型" style="rounded=1;absoluteArcSize=1;html=1;arcSize=10;whiteSpace=wrap;points=[];strokeColor=inherit;fillColor=inherit;" parent="JS5keNYWA7rWo26T6prg-47" vertex="1">
          <mxGeometry x="50" y="5" width="20" height="90" as="geometry" />
        </mxCell>
        <mxCell id="JS5keNYWA7rWo26T6prg-75" value="是否含税" style="rounded=1;absoluteArcSize=1;html=1;arcSize=10;whiteSpace=wrap;points=[];strokeColor=inherit;fillColor=inherit;" parent="JS5keNYWA7rWo26T6prg-47" vertex="1">
          <mxGeometry x="80" y="5" width="20" height="90" as="geometry" />
        </mxCell>
        <mxCell id="JS5keNYWA7rWo26T6prg-76" value="平台" style="rounded=1;absoluteArcSize=1;html=1;arcSize=10;whiteSpace=wrap;points=[];strokeColor=inherit;fillColor=inherit;" parent="JS5keNYWA7rWo26T6prg-47" vertex="1">
          <mxGeometry x="110" y="5" width="20" height="90" as="geometry" />
        </mxCell>
        <mxCell id="JS5keNYWA7rWo26T6prg-77" value="账号" style="rounded=1;absoluteArcSize=1;html=1;arcSize=10;whiteSpace=wrap;points=[];strokeColor=inherit;fillColor=inherit;" parent="JS5keNYWA7rWo26T6prg-47" vertex="1">
          <mxGeometry x="140" y="5" width="20" height="90" as="geometry" />
        </mxCell>
        <mxCell id="JS5keNYWA7rWo26T6prg-140" value="dwd表" style="rounded=1;whiteSpace=wrap;html=1;fillColor=#6d8764;fontColor=#ffffff;strokeColor=#3A5431;" parent="1" vertex="1">
          <mxGeometry y="285" width="120" height="30" as="geometry" />
        </mxCell>
        <mxCell id="JS5keNYWA7rWo26T6prg-143" value="dim表" style="rounded=1;whiteSpace=wrap;html=1;fillColor=#6d8764;fontColor=#ffffff;strokeColor=#3A5431;" parent="1" vertex="1">
          <mxGeometry x="580" y="285" width="120" height="30" as="geometry" />
        </mxCell>
        <mxCell id="JS5keNYWA7rWo26T6prg-161" style="edgeStyle=orthogonalEdgeStyle;rounded=0;orthogonalLoop=1;jettySize=auto;html=1;exitX=0;exitY=0.5;exitDx=0;exitDy=0;entryX=1;entryY=0.5;entryDx=0;entryDy=0;" parent="1" source="JS5keNYWA7rWo26T6prg-145" target="JS5keNYWA7rWo26T6prg-160" edge="1">
          <mxGeometry relative="1" as="geometry" />
        </mxCell>
        <mxCell id="JS5keNYWA7rWo26T6prg-145" value="" style="rounded=1;absoluteArcSize=1;html=1;arcSize=10;fillColor=#ffe6cc;strokeColor=#d79b00;" parent="1" vertex="1">
          <mxGeometry x="136.5" y="1040" width="230" height="100" as="geometry" />
        </mxCell>
        <mxCell id="JS5keNYWA7rWo26T6prg-146" value="汇总表" style="html=1;shape=mxgraph.er.anchor;whiteSpace=wrap;" parent="JS5keNYWA7rWo26T6prg-145" vertex="1">
          <mxGeometry width="47.58620689655173" height="100" as="geometry" />
        </mxCell>
        <mxCell id="JS5keNYWA7rWo26T6prg-147" value="订单汇总" style="rounded=1;absoluteArcSize=1;html=1;arcSize=10;whiteSpace=wrap;points=[];strokeColor=inherit;fillColor=inherit;" parent="JS5keNYWA7rWo26T6prg-145" vertex="1">
          <mxGeometry x="47.589999999999975" y="5" width="20" height="90" as="geometry" />
        </mxCell>
        <mxCell id="JS5keNYWA7rWo26T6prg-148" value="店铺汇总" style="rounded=1;absoluteArcSize=1;html=1;arcSize=10;whiteSpace=wrap;points=[];strokeColor=inherit;fillColor=inherit;" parent="JS5keNYWA7rWo26T6prg-145" vertex="1">
          <mxGeometry x="80" y="5" width="20" height="90" as="geometry" />
        </mxCell>
        <mxCell id="JS5keNYWA7rWo26T6prg-149" value="仓库汇总" style="rounded=1;absoluteArcSize=1;html=1;arcSize=10;whiteSpace=wrap;points=[];strokeColor=inherit;fillColor=inherit;" parent="JS5keNYWA7rWo26T6prg-145" vertex="1">
          <mxGeometry x="110" y="5" width="20" height="90" as="geometry" />
        </mxCell>
        <mxCell id="JS5keNYWA7rWo26T6prg-150" value="......" style="rounded=1;absoluteArcSize=1;html=1;arcSize=10;whiteSpace=wrap;points=[];strokeColor=inherit;fillColor=inherit;" parent="JS5keNYWA7rWo26T6prg-145" vertex="1">
          <mxGeometry x="150" y="5" width="60" height="90" as="geometry" />
        </mxCell>
        <mxCell id="JS5keNYWA7rWo26T6prg-163" style="edgeStyle=orthogonalEdgeStyle;rounded=0;orthogonalLoop=1;jettySize=auto;html=1;exitX=0;exitY=0.5;exitDx=0;exitDy=0;entryX=1;entryY=0.5;entryDx=0;entryDy=0;" parent="1" source="JS5keNYWA7rWo26T6prg-152" target="JS5keNYWA7rWo26T6prg-162" edge="1">
          <mxGeometry relative="1" as="geometry" />
        </mxCell>
        <mxCell id="JS5keNYWA7rWo26T6prg-152" value="" style="rounded=1;absoluteArcSize=1;html=1;arcSize=10;fillColor=#ffe6cc;strokeColor=#d79b00;" parent="1" vertex="1">
          <mxGeometry x="700" y="1040" width="230" height="120" as="geometry" />
        </mxCell>
        <mxCell id="JS5keNYWA7rWo26T6prg-153" value="联合表" style="html=1;shape=mxgraph.er.anchor;whiteSpace=wrap;" parent="JS5keNYWA7rWo26T6prg-152" vertex="1">
          <mxGeometry width="47.58620689655173" height="120" as="geometry" />
        </mxCell>
        <mxCell id="JS5keNYWA7rWo26T6prg-154" value="订单宽表" style="rounded=1;absoluteArcSize=1;html=1;arcSize=10;whiteSpace=wrap;points=[];strokeColor=inherit;fillColor=inherit;" parent="JS5keNYWA7rWo26T6prg-152" vertex="1">
          <mxGeometry x="47.589999999999975" y="6" width="20" height="108" as="geometry" />
        </mxCell>
        <mxCell id="JS5keNYWA7rWo26T6prg-155" value="订单包裹联合表" style="rounded=1;absoluteArcSize=1;html=1;arcSize=10;whiteSpace=wrap;points=[];strokeColor=inherit;fillColor=inherit;" parent="JS5keNYWA7rWo26T6prg-152" vertex="1">
          <mxGeometry x="90" y="6" width="20" height="108" as="geometry" />
        </mxCell>
        <mxCell id="JS5keNYWA7rWo26T6prg-156" value="链接宽表" style="rounded=1;absoluteArcSize=1;html=1;arcSize=10;whiteSpace=wrap;points=[];strokeColor=inherit;fillColor=inherit;" parent="JS5keNYWA7rWo26T6prg-152" vertex="1">
          <mxGeometry x="70" y="6" width="20" height="108" as="geometry" />
        </mxCell>
        <mxCell id="JS5keNYWA7rWo26T6prg-157" value="......" style="rounded=1;absoluteArcSize=1;html=1;arcSize=10;whiteSpace=wrap;points=[];strokeColor=inherit;fillColor=inherit;" parent="JS5keNYWA7rWo26T6prg-152" vertex="1">
          <mxGeometry x="150" y="6" width="60" height="108" as="geometry" />
        </mxCell>
        <mxCell id="JS5keNYWA7rWo26T6prg-159" value="采购仓库联合表" style="rounded=1;absoluteArcSize=1;html=1;arcSize=10;whiteSpace=wrap;points=[];strokeColor=inherit;fillColor=inherit;" parent="JS5keNYWA7rWo26T6prg-152" vertex="1">
          <mxGeometry x="110" y="6" width="20" height="108" as="geometry" />
        </mxCell>
        <mxCell id="JS5keNYWA7rWo26T6prg-160" value="dws表" style="rounded=1;whiteSpace=wrap;html=1;fillColor=#6d8764;fontColor=#ffffff;strokeColor=#3A5431;" parent="1" vertex="1">
          <mxGeometry x="-70" y="1075" width="120" height="30" as="geometry" />
        </mxCell>
        <mxCell id="JS5keNYWA7rWo26T6prg-162" value="dwm表" style="rounded=1;whiteSpace=wrap;html=1;fillColor=#6d8764;fontColor=#ffffff;strokeColor=#3A5431;" parent="1" vertex="1">
          <mxGeometry x="510" y="1085" width="120" height="30" as="geometry" />
        </mxCell>
      </root>
    </mxGraphModel>
  </diagram>
</mxfile>
